<?xml version="1.0" standalone="no"?>
<!DOCTYPE svg PUBLIC "-//W3C//DTD SVG 20010904//EN"
 "http://www.w3.org/TR/2001/REC-SVG-20010904/DTD/svg10.dtd">
<svg version="1.0" xmlns="http://www.w3.org/2000/svg"
 width="512.000000pt" height="512.000000pt" viewBox="0 0 512.000000 512.000000"
 preserveAspectRatio="xMidYMid meet">

<g transform="translate(0.000000,512.000000) scale(0.100000,-0.100000)"
fill="#000000" stroke="none">
<path d="M1426 4949 c-62 -15 -153 -68 -197 -116 -22 -24 -55 -74 -72 -111
l-32 -67 -3 -832 -3 -833 -256 -277 c-351 -380 -404 -456 -478 -676 -63 -189
-65 -216 -65 -1065 l0 -763 25 -24 c29 -30 74 -32 106 -6 l24 19 5 809 5 808
28 99 c32 119 97 256 164 347 26 36 136 161 243 278 l195 211 5 -596 5 -596
24 -19 c29 -24 72 -24 99 -1 11 9 84 130 162 267 78 138 153 262 168 278 55
57 144 58 211 1 45 -39 66 -90 58 -141 -3 -19 -74 -151 -156 -294 -104 -180
-151 -270 -151 -291 0 -21 19 -58 64 -122 140 -201 187 -359 165 -554 -13
-112 -38 -186 -110 -314 -32 -59 -59 -118 -59 -133 0 -54 70 -92 120 -65 22
12 103 149 141 240 l28 65 384 3 385 2 77 -142 c42 -79 86 -151 97 -160 45
-40 128 -2 128 57 0 15 -135 272 -331 626 -182 331 -328 606 -326 613 3 6 31
25 62 41 105 53 220 34 292 -48 16 -18 78 -118 137 -220 60 -103 116 -192 126
-197 29 -16 66 -12 91 9 l24 19 5 730 c5 718 5 731 26 758 39 53 71 69 134 69
63 0 95 -16 134 -69 21 -27 21 -41 26 -638 l5 -610 24 -19 c30 -24 72 -24 102
0 24 19 24 23 29 229 5 230 7 236 74 286 39 29 133 29 172 0 67 -50 69 -56 74
-286 5 -206 5 -210 29 -229 30 -24 72 -24 102 0 24 19 24 23 29 229 5 230 7
236 74 286 39 29 133 29 172 0 67 -50 69 -56 74 -286 5 -206 5 -210 29 -229
30 -24 72 -24 102 0 21 17 25 30 29 110 6 97 18 124 74 165 20 16 42 21 86 21
63 0 95 -16 134 -69 21 -27 21 -41 26 -678 l5 -650 24 -19 c33 -27 77 -24 107
6 l25 25 -3 657 -3 658 -34 63 c-75 138 -223 201 -367 156 -32 -10 -63 -18
-67 -19 -5 0 -16 23 -26 52 -36 105 -110 177 -215 208 -76 23 -139 17 -228
-20 -17 -7 -18 67 -20 1342 l-3 1349 -37 76 c-45 91 -103 147 -196 191 l-67
32 -1115 2 c-652 1 -1131 -3 -1154 -8z m2248 -161 c55 -16 138 -99 154 -154 7
-23 12 -67 12 -98 l0 -56 -1280 0 -1280 0 0 56 c0 31 5 75 12 98 15 51 99 137
148 153 53 17 2178 17 2234 1z m166 -1649 c0 -1121 -1 -1181 -17 -1174 -107
44 -179 44 -285 0 -15 -6 -17 17 -20 297 l-3 303 -34 63 c-47 86 -117 141
-206 163 -18 4 15 7 86 8 148 1 194 16 252 81 24 26 49 66 55 88 17 56 17 968
0 1024 -6 22 -31 62 -55 88 -76 85 -13 80 -1051 80 -689 0 -925 -3 -956 -12
-55 -16 -138 -99 -154 -154 -17 -59 -17 -969 0 -1028 16 -55 99 -138 154 -154
31 -9 235 -12 795 -13 415 -1 741 -4 724 -8 -90 -22 -172 -90 -215 -176 l-25
-50 -5 -570 -5 -569 -40 68 c-113 194 -337 266 -529 169 -124 -62 -184 -104
-195 -135 -13 -35 -11 -39 119 -274 39 -69 70 -128 70 -130 0 -2 -99 -4 -220
-4 l-220 0 -21 43 c-12 23 -44 76 -72 117 -28 41 -50 79 -50 85 0 6 58 112
129 235 72 124 135 238 142 253 53 124 -6 302 -126 378 -53 33 -130 59 -177
59 -49 0 -135 -29 -183 -62 -50 -35 -69 -61 -158 -213 l-64 -110 0 1208 0
1207 1280 0 1280 0 0 -1181z m-345 836 l25 -24 0 -471 0 -471 -25 -24 -24 -25
-911 0 -911 0 -24 25 -25 24 0 471 0 471 25 24 24 25 911 0 911 0 24 -25z
m-1091 -3037 c7 -13 48 -85 89 -160 l76 -138 -318 0 -318 0 -5 143 c-3 78 -9
150 -13 160 -7 16 8 17 234 17 239 0 241 0 255 -22z"/>
<path d="M2425 4695 c-16 -15 -25 -36 -25 -55 0 -19 9 -40 25 -55 23 -24 31
-25 135 -25 104 0 112 1 135 25 16 15 25 36 25 55 0 19 -9 40 -25 55 -23 24
-31 25 -135 25 -104 0 -112 -1 -135 -25z"/>
<path d="M1465 2615 c-16 -15 -25 -36 -25 -55 0 -19 9 -40 25 -55 l24 -25 591
0 591 0 24 25 c16 15 25 36 25 55 0 19 -9 40 -25 55 l-24 25 -591 0 -591 0
-24 -25z"/>
<path d="M2105 2295 c-16 -15 -25 -36 -25 -55 0 -19 9 -40 25 -55 l24 -25 271
0 271 0 24 25 c16 15 25 36 25 55 0 19 -9 40 -25 55 l-24 25 -271 0 -271 0
-24 -25z"/>
<path d="M2265 1975 c-16 -15 -25 -36 -25 -55 0 -19 9 -40 25 -55 24 -25 26
-25 215 -25 189 0 191 0 215 25 16 15 25 36 25 55 0 19 -9 40 -25 55 -24 25
-26 25 -215 25 -189 0 -191 0 -215 -25z"/>
<path d="M1785 3815 l-25 -24 0 -311 0 -311 25 -24 c15 -16 36 -25 55 -25 19
0 40 9 55 25 23 22 25 32 25 120 l0 95 58 0 c87 0 144 23 195 80 93 103 90
228 -8 325 -63 64 -100 75 -244 75 -105 0 -113 -1 -136 -25z m270 -160 c16
-15 25 -36 25 -55 0 -51 -38 -80 -105 -80 l-55 0 0 80 0 80 55 0 c46 0 60 -4
80 -25z"/>
<path d="M2512 3823 c-24 -21 -272 -597 -272 -631 0 -31 43 -72 75 -72 45 0
64 19 97 91 l31 70 119 -3 120 -3 25 -60 c28 -70 54 -95 95 -95 36 0 78 40 78
74 0 36 -247 607 -272 629 -11 9 -33 17 -48 17 -15 0 -37 -8 -48 -17z m74
-326 l22 -52 -24 -3 c-13 -2 -35 -2 -48 0 l-24 3 22 52 c11 29 23 53 26 53 3
0 15 -24 26 -53z"/>
<path d="M2825 3815 c-45 -44 -36 -67 95 -241 l119 -159 1 -123 c0 -117 1
-124 25 -147 32 -33 78 -33 110 0 24 23 25 30 25 147 l1 123 119 159 c131 174
140 197 95 241 -26 27 -71 33 -98 13 -9 -7 -55 -65 -102 -128 -48 -63 -90
-115 -95 -115 -5 0 -47 52 -95 115 -47 63 -93 121 -102 128 -27 20 -72 14 -98
-13z"/>
</g>
</svg>
