<?xml version="1.0" standalone="no"?>
<!DOCTYPE svg PUBLIC "-//W3C//DTD SVG 20010904//EN"
 "http://www.w3.org/TR/2001/REC-SVG-20010904/DTD/svg10.dtd">
<svg version="1.0" xmlns="http://www.w3.org/2000/svg"
 width="512.000000pt" height="512.000000pt" viewBox="0 0 512.000000 512.000000"
 preserveAspectRatio="xMidYMid meet">

<g transform="translate(0.000000,512.000000) scale(0.100000,-0.100000)"
fill="#000000" stroke="none">
<path d="M466 4949 c-62 -15 -153 -68 -197 -116 -22 -24 -55 -74 -72 -111
l-32 -67 0 -1536 0 -1535 37 -76 c45 -91 103 -147 196 -191 l67 -32 753 -3
c707 -2 753 -4 748 -20 -18 -62 -133 -444 -157 -524 l-30 -98 -185 0 -185 0
-26 -26 c-24 -24 -25 -30 -20 -92 9 -88 60 -194 123 -251 25 -24 75 -57 112
-74 l67 -32 895 0 895 0 67 32 c37 17 87 50 112 74 63 57 114 163 123 251 5
62 4 68 -20 92 l-26 26 -185 0 -185 0 -30 98 c-24 80 -139 462 -157 524 -5 16
41 18 748 20 l754 3 76 37 c91 45 147 103 191 196 l32 67 0 1535 0 1535 -32
67 c-44 93 -100 151 -191 196 l-76 37 -2075 2 c-1231 0 -2092 -3 -2115 -8z
m4168 -161 c55 -16 138 -99 154 -154 9 -32 12 -340 12 -1298 l0 -1256 -2240 0
-2240 0 0 480 0 480 600 0 600 0 0 -56 c0 -31 5 -75 12 -98 16 -55 99 -138
154 -154 31 -9 238 -12 823 -12 746 0 781 -1 781 -18 0 -36 42 -143 80 -200
73 -114 176 -193 310 -238 40 -14 84 -19 160 -19 76 0 120 5 160 19 185 62
314 192 376 376 26 76 26 244 0 320 -46 135 -122 236 -236 309 -59 38 -166 81
-202 81 -17 0 -18 20 -18 381 0 266 -4 394 -12 421 -6 22 -31 62 -55 88 -75
84 -35 80 -865 80 l-728 0 -320 160 c-176 88 -327 160 -335 160 -9 0 -141 -36
-295 -80 l-279 -80 -356 0 -355 0 0 56 c0 31 5 75 12 98 15 51 99 137 148 153
53 17 4097 17 4154 1z m-2884 -393 l145 -74 -84 0 c-46 -1 -102 -6 -125 -13
-55 -16 -138 -99 -154 -154 -8 -28 -12 -126 -12 -298 l0 -256 -80 0 -80 0 0
-80 0 -79 325 -3 325 -3 32 -33 c28 -28 33 -39 33 -82 0 -43 -5 -54 -33 -82
l-32 -33 -845 -3 -845 -2 0 560 0 560 368 0 367 1 255 74 c140 40 264 74 275
74 11 0 85 -33 165 -74z m1985 -260 c23 -22 25 -32 25 -120 l0 -95 -1040 0
-1040 0 0 95 c0 88 2 98 25 120 l24 25 991 0 991 0 24 -25z m25 -455 l0 -80
-1040 0 -1040 0 0 80 0 80 1040 0 1040 0 0 -80z m0 -283 l0 -42 -51 -12 c-198
-47 -365 -214 -412 -412 l-12 -51 -778 0 -778 0 -24 25 c-21 20 -25 34 -25 79
l0 54 178 4 c163 3 181 5 222 27 25 13 58 35 73 50 70 64 104 194 74 279 l-15
42 774 0 774 0 0 -43z m244 -235 c91 -42 149 -100 194 -190 35 -72 37 -81 37
-172 0 -91 -2 -100 -37 -172 -45 -91 -103 -147 -196 -191 -61 -29 -76 -32
-162 -32 -86 0 -101 3 -162 32 -93 44 -151 100 -196 191 -35 72 -37 81 -37
171 0 87 3 102 32 163 40 85 97 147 172 186 78 42 122 52 213 48 61 -3 92 -11
142 -34z m796 -1378 c0 -78 -5 -154 -12 -178 -16 -55 -99 -138 -154 -154 -60
-18 -4088 -18 -4148 0 -55 16 -138 99 -154 154 -7 24 -12 100 -12 178 l0 136
2240 0 2240 0 0 -136z m-1791 -601 c24 -80 138 -460 157 -525 5 -17 -28 -18
-606 -18 -578 0 -611 1 -606 18 3 9 44 148 91 307 47 160 88 296 90 303 3 9
97 12 424 12 l420 0 30 -97z m571 -719 c0 -27 -101 -119 -146 -132 -59 -17
-1689 -17 -1748 0 -45 13 -146 105 -146 132 0 14 101 16 1020 16 919 0 1020
-2 1020 -16z"/>
<path d="M2320 3200 l0 -80 80 0 80 0 0 80 0 80 -80 0 -80 0 0 -80z"/>
<path d="M2640 3200 l0 -80 80 0 80 0 0 80 0 80 -80 0 -80 0 0 -80z"/>
<path d="M2960 3200 l0 -80 80 0 80 0 0 80 0 80 -80 0 -80 0 0 -80z"/>
<path d="M3888 2883 l-128 -128 -48 48 c-26 26 -52 47 -58 47 -13 0 -104 -93
-104 -106 0 -6 40 -49 89 -97 127 -125 114 -128 323 80 92 92 168 172 168 178
0 13 -92 105 -105 105 -6 0 -67 -57 -137 -127z"/>
</g>
</svg>
