<?xml version="1.0" standalone="no"?>
<!DOCTYPE svg PUBLIC "-//W3C//DTD SVG 20010904//EN"
 "http://www.w3.org/TR/2001/REC-SVG-20010904/DTD/svg10.dtd">
<svg version="1.0" xmlns="http://www.w3.org/2000/svg"
 width="640.000000pt" height="640.000000pt" viewBox="0 0 640.000000 640.000000"
 preserveAspectRatio="xMidYMid meet">

<g transform="translate(0.000000,640.000000) scale(0.100000,-0.100000)"
fill="#000000" stroke="none">
<path d="M1699 5735 c-397 -79 -861 -549 -978 -990 -59 -220 -66 -274 -66
-505 0 -161 5 -242 18 -323 146 -867 702 -1741 1552 -2438 469 -384 1079 -687
1580 -783 346 -67 601 -61 914 19 163 42 293 103 435 204 229 163 395 350 504
568 131 260 121 524 -28 743 -54 79 -375 408 -484 495 -143 115 -281 165 -462
165 -229 0 -391 -78 -598 -289 -114 -116 -242 -171 -399 -171 -177 0 -275 44
-482 217 -233 195 -567 544 -682 713 -64 94 -93 190 -93 310 0 182 45 280 203
450 60 63 125 140 145 170 151 228 150 561 -3 795 -21 33 -138 159 -259 281
-269 269 -345 324 -503 365 -88 22 -214 24 -314 4z m249 -200 c77 -18 130 -45
202 -100 81 -63 421 -412 457 -470 52 -83 76 -167 77 -275 1 -173 -43 -265
-207 -437 -106 -112 -146 -166 -186 -256 -108 -240 -86 -529 57 -744 158 -238
672 -751 911 -910 173 -115 404 -151 617 -94 151 39 228 87 392 242 74 70 133
117 175 138 66 33 175 61 242 61 67 0 177 -28 245 -62 50 -26 103 -70 239
-203 285 -278 346 -361 371 -507 51 -294 -262 -727 -679 -937 -176 -89 -539
-146 -771 -121 -320 34 -583 109 -911 260 -834 383 -1659 1201 -2044 2025
-269 576 -342 1052 -229 1495 67 265 213 490 440 679 150 124 277 192 409 216
93 17 119 17 193 0z"/>
</g>
</svg>
