<?xml version="1.0" standalone="no"?>
<!DOCTYPE svg PUBLIC "-//W3C//DTD SVG 20010904//EN"
 "http://www.w3.org/TR/2001/REC-SVG-20010904/DTD/svg10.dtd">
<svg version="1.0" xmlns="http://www.w3.org/2000/svg"
 width="512.000000pt" height="512.000000pt" viewBox="0 0 512.000000 512.000000"
 preserveAspectRatio="xMidYMid meet">

<g transform="translate(0.000000,512.000000) scale(0.100000,-0.100000)"
fill="#000000" stroke="none">
<path d="M2315 5109 c-800 -83 -1501 -518 -1927 -1196 -604 -961 -490 -2237
274 -3068 425 -462 951 -737 1583 -827 119 -17 512 -16 635 1 622 86 1148 360
1572 820 349 378 572 862 650 1406 17 118 17 512 0 630 -59 416 -191 769 -410
1099 -92 140 -185 254 -315 385 -399 404 -893 653 -1462 737 -123 18 -478 26
-600 13z m1385 -1564 c59 -56 60 -95 9 -470 -45 -334 -200 -1276 -255 -1545
-20 -99 -59 -184 -101 -220 -30 -27 -41 -30 -101 -30 -49 0 -80 6 -117 24 -64
29 -847 557 -899 605 -47 44 -69 91 -60 129 13 54 73 118 354 382 332 312 501
477 525 513 22 34 6 67 -32 67 -33 0 -6 17 -648 -410 -599 -398 -613 -406
-740 -403 -97 2 -483 107 -590 160 -110 55 -97 137 31 201 111 56 1428 622
1842 791 602 247 709 276 782 206z"/>
</g>
</svg>
